<?xml version="1.0" encoding="utf-8"?>
<!-- Generator: Adobe Illustrator 25.4.1, SVG Export Plug-In . SVG Version: 6.00 Build 0)  -->
<svg version="1.1" id="Layer_1" xmlns="http://www.w3.org/2000/svg" xmlns:xlink="http://www.w3.org/1999/xlink" x="0px" y="0px"
	 viewBox="0 0 16 16" style="enable-background:new 0 0 16 16;" xml:space="preserve">
<style type="text/css">
	.st0{fill:#FFFFFF;}
</style>
<path d="M14.5,11.7c0-0.1-2.3-1.2-2.1-3.4c0.2-2.2,1.7-2.8,1.7-2.9s-0.6-0.8-1.3-1.2c-0.5-0.3-1-0.4-1.6-0.4c-0.1,0-0.5-0.1-1.3,0.1
	C9.5,4.1,8.4,4.6,8,4.6c-0.3,0-1.3-0.5-2.3-0.7C5.1,3.8,4.4,4.1,4,4.3C3.5,4.5,2.5,5,1.9,6.5C1.2,8,1.6,10.3,1.8,11.1
	c0.2,0.7,0.6,1.9,1.3,2.8c0.6,1,1.3,1.7,1.7,1.9C5.1,16,6,16.1,6.6,15.8c0.5-0.3,1.4-0.5,1.8-0.5c0.4,0,1.1,0.2,1.8,0.5
	c0.6,0.2,1.1,0.1,1.7-0.1c0.5-0.2,1.3-1.1,2.2-2.8C14.4,12.2,14.5,11.8,14.5,11.7z"/>
<path d="M14.5,11.7c0-0.1-2.3-1.2-2.1-3.4c0.2-2.2,1.7-2.8,1.7-2.9s-0.6-0.8-1.3-1.2c-0.5-0.3-1-0.4-1.6-0.4c-0.1,0-0.5-0.1-1.3,0.1
	C9.5,4.1,8.4,4.6,8,4.6c-0.3,0-1.3-0.5-2.3-0.7C5.1,3.8,4.4,4.1,4,4.3C3.5,4.5,2.5,5,1.9,6.5C1.2,8,1.6,10.3,1.8,11.1
	c0.2,0.7,0.6,1.9,1.3,2.8c0.6,1,1.3,1.7,1.7,1.9C5.1,16,6,16.1,6.6,15.8c0.5-0.3,1.4-0.5,1.8-0.5c0.4,0,1.1,0.2,1.8,0.5
	c0.6,0.2,1.1,0.1,1.7-0.1c0.5-0.2,1.3-1.1,2.2-2.8C14.4,12.2,14.5,11.8,14.5,11.7z"/>
<path class="st0" d="M5.4,8.5C5.4,7,6.6,5.8,8,5.8s2.6,1.2,2.6,2.7v2.9c0,1.5-1.2,2.7-2.6,2.7s-2.6-1.2-2.6-2.7V8.5L5.4,8.5z
	 M7.7,6.3c-1,0.1-1.8,1-1.8,2.2v0.2h1.8V6.3z M8.3,6.3v2.3h1.8V8.5C10.1,7.3,9.3,6.4,8.3,6.3z M10.1,9.1H5.9v2.2
	c0,1.2,0.9,2.2,2.1,2.2s2.1-1,2.1-2.2V9.1z"/>
</svg>
